<svg xmlns="http://www.w3.org/2000/svg" xmlns:xlink="http://www.w3.org/1999/xlink" width="2000" zoomAndPan="magnify" viewBox="0 0 1500 1499.999933" height="2000" preserveAspectRatio="xMidYMid meet" version="1.0"><defs><filter x="0%" y="0%" width="100%" height="100%" id="09ae0ee8db"><feColorMatrix values="0 0 0 0 1 0 0 0 0 1 0 0 0 0 1 0 0 0 1 0" color-interpolation-filters="sRGB"/></filter><mask id="a0ef7d9c56"><g filter="url(#09ae0ee8db)"><rect x="-150" width="1800" fill="#000000" y="-149.999993" height="1799.99992" fill-opacity="0.149"/></g></mask><clipPath id="bdf4646376"><path d="M 17 32 L 1387 32 L 1387 914 L 17 914 Z M 17 32 " clip-rule="nonzero"/></clipPath><clipPath id="8262ab3f82"><path d="M 17.980469 102.800781 C 17.980469 63.863281 49.558594 32.300781 88.507812 32.300781 L 1315.6875 32.300781 C 1354.640625 32.300781 1386.214844 63.863281 1386.214844 102.800781 L 1386.214844 842.65625 C 1386.214844 881.59375 1354.640625 913.15625 1315.6875 913.15625 L 818.851562 913.15625 C 967.960938 865.359375 1075.894531 725.679688 1075.894531 560.816406 C 1075.894531 356.492188 910.121094 190.855469 705.625 190.855469 C 501.128906 190.855469 335.355469 356.492188 335.355469 560.816406 C 335.355469 725.679688 443.285156 865.359375 592.398438 913.15625 L 88.507812 913.15625 C 49.558594 913.15625 17.980469 881.59375 17.980469 842.65625 Z M 705.625 736.988281 C 803.003906 736.988281 881.945312 658.113281 881.945312 560.816406 C 881.945312 463.519531 803.003906 384.644531 705.625 384.644531 C 608.246094 384.644531 529.304688 463.519531 529.304688 560.816406 C 529.304688 658.113281 608.246094 736.988281 705.625 736.988281 Z M 705.625 736.988281 " clip-rule="evenodd"/></clipPath><clipPath id="4018aee55b"><rect x="0" width="1411" y="0" height="918"/></clipPath><clipPath id="085752a9ef"><path d="M 39 839 L 73 839 L 73 956 L 39 956 Z M 39 839 " clip-rule="nonzero"/></clipPath><clipPath id="c05b87bcd4"><path d="M 72.265625 938.820312 C 72.265625 947.789062 64.984375 955.0625 56.011719 955.0625 C 47.039062 955.0625 39.757812 947.789062 39.757812 938.820312 L 39.757812 855.316406 C 39.757812 846.339844 47.039062 839.078125 56.011719 839.078125 C 64.984375 839.078125 72.265625 846.339844 72.265625 855.316406 Z M 72.265625 938.820312 " clip-rule="nonzero"/></clipPath><clipPath id="7fb5c8114a"><path d="M 35 210 L 1446 210 L 1446 1275 L 35 1275 Z M 35 210 " clip-rule="nonzero"/></clipPath><clipPath id="432c4ed334"><path d="M 1366.375 345.148438 L 1280.789062 345.148438 L 1280.789062 335.40625 C 1280.789062 307.8125 1258.320312 285.351562 1230.691406 285.351562 L 1221.917969 285.351562 L 1221.917969 260.414062 C 1221.917969 232.8125 1199.4375 210.363281 1171.824219 210.363281 L 1073.109375 210.363281 C 1045.496094 210.363281 1023.015625 232.8125 1023.015625 260.414062 L 1023.015625 285.351562 L 1014.238281 285.351562 C 986.617188 285.351562 964.148438 307.804688 964.148438 335.40625 L 964.148438 345.148438 L 670.039062 345.148438 L 670.039062 323.640625 C 670.039062 296.050781 647.570312 273.585938 619.945312 273.585938 L 580.105469 273.585938 C 552.488281 273.585938 530.007812 296.039062 530.007812 323.640625 L 530.007812 345.148438 L 481.667969 345.148438 L 481.667969 294.234375 C 481.667969 266.640625 459.199219 244.179688 431.574219 244.179688 L 215.132812 244.179688 C 187.519531 244.179688 165.039062 266.640625 165.039062 294.234375 L 165.039062 345.148438 L 114.878906 345.148438 C 71.023438 345.148438 35.347656 380.804688 35.347656 424.609375 L 35.347656 765.40625 C 35.347656 776.816406 44.605469 786.050781 56.011719 786.050781 C 67.417969 786.050781 76.675781 776.816406 76.675781 765.40625 L 76.675781 569.339844 L 189.757812 569.339844 C 198.851562 602.609375 229.359375 627.148438 265.5 627.148438 C 301.648438 627.148438 332.144531 602.609375 341.238281 569.339844 L 505.335938 569.339844 C 410.015625 640.933594 348.253906 754.824219 348.253906 882.867188 C 348.253906 966.933594 374.878906 1044.886719 420.132812 1108.792969 L 76.675781 1108.792969 L 76.675781 1028.730469 C 76.675781 1017.320312 67.417969 1008.082031 56.011719 1008.082031 C 44.605469 1008.082031 35.347656 1017.320312 35.347656 1028.730469 L 35.347656 1157.867188 C 35.347656 1201.683594 71.023438 1237.332031 114.878906 1237.332031 L 573.089844 1237.332031 C 623.925781 1261.417969 680.726562 1274.910156 740.625 1274.910156 C 800.546875 1274.910156 857.359375 1261.40625 908.207031 1237.300781 C 908.367188 1237.308594 908.519531 1237.332031 908.679688 1237.332031 L 1366.375 1237.332031 C 1410.226562 1237.332031 1445.902344 1201.683594 1445.902344 1157.867188 L 1445.902344 424.609375 C 1445.902344 380.804688 1410.226562 345.148438 1366.375 345.148438 Z M 1064.335938 260.414062 C 1064.335938 255.589844 1068.273438 251.652344 1073.121094 251.652344 L 1171.824219 251.652344 C 1176.65625 251.652344 1180.597656 255.578125 1180.597656 260.414062 L 1180.597656 285.351562 L 1064.351562 285.351562 L 1064.351562 260.414062 Z M 1005.46875 335.40625 C 1005.46875 330.578125 1009.410156 326.640625 1014.253906 326.640625 L 1230.691406 326.640625 C 1235.523438 326.640625 1239.464844 330.578125 1239.464844 335.40625 L 1239.464844 345.148438 L 1005.480469 345.148438 L 1005.480469 335.40625 Z M 571.335938 323.640625 C 571.335938 318.8125 575.273438 314.878906 580.105469 314.878906 L 619.945312 314.878906 C 624.785156 314.878906 628.714844 318.8125 628.714844 323.640625 L 628.714844 345.148438 L 571.335938 345.148438 Z M 206.363281 294.234375 C 206.363281 289.40625 210.300781 285.46875 215.132812 285.46875 L 431.582031 285.46875 C 436.414062 285.46875 440.355469 289.40625 440.355469 294.234375 L 440.355469 345.148438 L 206.363281 345.148438 Z M 265.5 585.855469 C 244.996094 585.855469 228.304688 569.1875 228.304688 548.699219 C 228.304688 528.210938 244.996094 511.535156 265.5 511.535156 C 286.011719 511.535156 302.691406 528.210938 302.691406 548.699219 C 302.691406 569.1875 286.011719 585.855469 265.5 585.855469 Z M 341.238281 528.050781 C 332.144531 494.78125 301.648438 470.242188 265.5 470.242188 C 229.351562 470.242188 198.851562 494.78125 189.757812 528.050781 L 76.675781 528.050781 L 76.675781 424.609375 C 76.675781 403.566406 93.816406 386.4375 114.878906 386.4375 L 1366.375 386.4375 C 1387.4375 386.4375 1404.578125 403.566406 1404.578125 424.609375 L 1404.578125 528.050781 L 1343.085938 528.050781 L 1343.085938 453.039062 C 1343.085938 441.640625 1333.832031 432.394531 1322.425781 432.394531 L 1130.125 432.394531 C 1118.714844 432.394531 1109.464844 441.640625 1109.464844 453.039062 L 1109.464844 528.050781 L 907.304688 528.050781 C 855.679688 503.835938 798.84375 490.835938 740.625 490.835938 C 681.027344 490.835938 624.507812 504.199219 573.871094 528.050781 Z M 1150.785156 528.050781 L 1150.785156 473.683594 L 1301.761719 473.683594 L 1301.761719 528.050781 Z M 114.878906 1196.039062 C 93.816406 1196.039062 76.675781 1178.910156 76.675781 1157.867188 L 76.675781 1150.082031 L 453.808594 1150.082031 C 469.441406 1166.835938 486.519531 1182.222656 504.847656 1196.039062 Z M 389.582031 882.878906 C 389.582031 689.46875 547.066406 532.125 740.625 532.125 C 841.019531 532.125 936.820312 575.242188 1003.480469 650.414062 C 1011.046875 658.953125 1024.101562 659.75 1032.644531 652.179688 C 1041.1875 644.621094 1041.976562 631.578125 1034.410156 623.035156 C 1016.683594 603.050781 997.097656 585.113281 976.050781 569.339844 L 1404.578125 569.339844 L 1404.578125 1108.792969 L 1061.121094 1108.792969 C 1092.675781 1064.234375 1115.144531 1012.835938 1125.871094 957.296875 L 1179.925781 957.296875 C 1210.40625 957.296875 1235.210938 932.519531 1235.210938 902.0625 L 1235.210938 850.632812 C 1235.210938 820.167969 1210.417969 795.394531 1179.925781 795.394531 L 1123.054688 795.394531 C 1115.542969 762.546875 1103.878906 730.6875 1088.214844 700.898438 C 1082.914062 690.804688 1070.417969 686.910156 1060.324219 692.226562 C 1050.21875 697.523438 1046.324219 709.996094 1051.625 720.09375 C 1077.820312 769.945312 1091.671875 826.234375 1091.671875 882.878906 C 1091.671875 1076.285156 934.195312 1233.628906 740.625 1233.628906 C 547.066406 1233.628906 389.582031 1076.273438 389.582031 882.878906 Z M 1130.230469 836.675781 L 1179.925781 836.675781 C 1187.621094 836.675781 1193.886719 842.933594 1193.886719 850.621094 L 1193.886719 902.0625 C 1193.886719 909.75 1187.621094 916.011719 1179.925781 916.011719 L 1131.578125 916.011719 C 1132.5 905.082031 1133 894.027344 1133 882.867188 C 1133 867.417969 1132.058594 851.988281 1130.230469 836.675781 Z M 1366.375 1196.039062 L 976.402344 1196.039062 C 994.730469 1182.222656 1011.8125 1166.835938 1027.445312 1150.082031 L 1404.578125 1150.082031 L 1404.578125 1157.867188 C 1404.578125 1178.910156 1387.4375 1196.039062 1366.375 1196.039062 Z M 1366.375 1196.039062 " clip-rule="nonzero"/></clipPath><clipPath id="ec8487c7a2"><path d="M 0 178.636719 L 1481.25 178.636719 L 1481.25 1306.636719 L 0 1306.636719 Z M 0 178.636719 " clip-rule="nonzero"/></clipPath><clipPath id="8def121568"><path d="M 467 609 L 1015 609 L 1015 1157 L 467 1157 Z M 467 609 " clip-rule="nonzero"/></clipPath><clipPath id="a92e06f876"><path d="M 467.03125 882.878906 C 467.03125 732.140625 589.761719 609.496094 740.628906 609.496094 C 891.492188 609.496094 1014.226562 732.140625 1014.226562 882.878906 C 1014.226562 1033.605469 891.492188 1156.246094 740.628906 1156.246094 C 589.761719 1156.246094 467.03125 1033.605469 467.03125 882.878906 Z M 499.535156 882.878906 C 499.535156 1015.707031 607.6875 1123.761719 740.628906 1123.761719 C 873.570312 1123.761719 981.714844 1015.707031 981.714844 882.878906 C 981.714844 750.050781 873.570312 641.980469 740.628906 641.980469 C 607.6875 641.980469 499.535156 750.050781 499.535156 882.878906 Z M 499.535156 882.878906 " clip-rule="nonzero"/></clipPath><clipPath id="6787567988"><path d="M 550 693 L 931 693 L 931 1073 L 550 1073 Z M 550 693 " clip-rule="nonzero"/></clipPath><clipPath id="bff8ca86e6"><path d="M 550.867188 882.878906 C 550.867188 778.332031 635.996094 693.269531 740.621094 693.269531 C 845.257812 693.269531 930.386719 778.332031 930.386719 882.878906 C 930.386719 987.421875 845.257812 1072.472656 740.621094 1072.472656 C 635.988281 1072.472656 550.867188 987.421875 550.867188 882.878906 Z M 583.375 882.878906 C 583.375 969.515625 653.910156 1039.992188 740.621094 1039.992188 C 827.332031 1039.992188 897.875 969.515625 897.875 882.878906 C 897.875 796.230469 827.332031 725.75 740.621094 725.75 C 653.910156 725.75 583.375 796.230469 583.375 882.878906 Z M 583.375 882.878906 " clip-rule="nonzero"/></clipPath></defs><g mask="url(#a0ef7d9c56)"><g transform="matrix(1, 0, 0, 1, 35, 319)"><g clip-path="url(#4018aee55b)"><g clip-path="url(#bdf4646376)"><g clip-path="url(#8262ab3f82)"><path fill="#ffffff" d="M 17.980469 32.300781 L 17.980469 913.15625 L 1386.214844 913.15625 L 1386.214844 32.300781 Z M 17.980469 32.300781 " fill-opacity="1" fill-rule="nonzero"/></g></g></g></g></g><g clip-path="url(#085752a9ef)"><g clip-path="url(#c05b87bcd4)"><path fill="#ffffff" d="M 39.757812 839.078125 L 39.757812 955.0625 L 72.265625 955.0625 L 72.265625 839.078125 Z M 39.757812 839.078125 " fill-opacity="1" fill-rule="nonzero"/></g></g><path stroke-linecap="butt" transform="matrix(35.263789, 0, 0, 35.249997, 0.0853699, 178.636328)" fill="none" stroke-linejoin="miter" d="M 2.046866 21.565505 C 2.046866 21.819938 1.840387 22.026276 1.585943 22.026276 C 1.331499 22.026276 1.125019 21.819938 1.125019 21.565505 L 1.125019 19.1966 C 1.125019 18.941945 1.331499 18.735939 1.585943 18.735939 C 1.840387 18.735939 2.046866 18.941945 2.046866 19.1966 Z M 2.046866 21.565505 " stroke="#ffffff" stroke-width="0.25" stroke-opacity="1" stroke-miterlimit="4"/><g clip-path="url(#7fb5c8114a)"><g clip-path="url(#432c4ed334)"><path fill="#ffffff" d="M 35.347656 210.363281 L 35.347656 1274.910156 L 1445.902344 1274.910156 L 1445.902344 210.363281 Z M 35.347656 210.363281 " fill-opacity="1" fill-rule="nonzero"/></g></g><g clip-path="url(#ec8487c7a2)"><path stroke-linecap="butt" transform="matrix(35.263789, 0, 0, 35.249997, 0.0853699, 178.636328)" fill="none" stroke-linejoin="miter" d="M 38.744834 4.723748 L 36.317813 4.723748 L 36.317813 4.447374 C 36.317813 3.664573 35.680651 3.027383 34.897159 3.027383 L 34.648364 3.027383 L 34.648364 2.319936 C 34.648364 1.536913 34.01087 0.900055 33.227821 0.900055 L 30.428495 0.900055 C 29.645446 0.900055 29.007951 1.536913 29.007951 2.319936 L 29.007951 3.027383 L 28.759046 3.027383 C 27.975775 3.027383 27.338613 3.664351 27.338613 4.447374 L 27.338613 4.723748 L 18.998347 4.723748 L 18.998347 4.113597 C 18.998347 3.330907 18.361185 2.693606 17.577803 2.693606 L 16.448037 2.693606 C 15.664877 2.693606 15.027383 3.330574 15.027383 4.113597 L 15.027383 4.723748 L 13.656576 4.723748 L 13.656576 3.279378 C 13.656576 2.496576 13.019414 1.859386 12.236032 1.859386 L 6.098251 1.859386 C 5.315202 1.859386 4.677708 2.496576 4.677708 3.279378 L 4.677708 4.723748 L 3.255281 4.723748 C 2.011641 4.723748 0.999957 5.735273 0.999957 6.977959 L 0.999957 16.645957 C 0.999957 16.969649 1.262488 17.231617 1.585943 17.231617 C 1.909398 17.231617 2.171928 16.969649 2.171928 16.645957 L 2.171928 11.083789 L 5.378675 11.083789 C 5.636552 12.027605 6.501684 12.723749 7.526549 12.723749 C 8.551636 12.723749 9.416435 12.027605 9.674313 11.083789 L 14.327745 11.083789 C 11.62468 13.114817 9.87326 16.345757 9.87326 19.978182 C 9.87326 22.363045 10.628283 24.574481 11.91158 26.387425 L 2.171928 26.387425 L 2.171928 24.116148 C 2.171928 23.792456 1.909398 23.530377 1.585943 23.530377 C 1.262488 23.530377 0.999957 23.792456 0.999957 24.116148 L 0.999957 27.779601 C 0.999957 29.02262 2.011641 30.033923 3.255281 30.033923 L 16.24909 30.033923 C 17.69068 30.717212 19.30142 31.099969 21.000002 31.099969 C 22.699249 31.099969 24.310321 30.71688 25.752243 30.033037 C 25.756785 30.033258 25.761105 30.033923 25.765647 30.033923 L 38.744834 30.033923 C 39.988363 30.033923 41.000047 29.02262 41.000047 27.779601 L 41.000047 6.977959 C 41.000047 5.735273 39.988363 4.723748 38.744834 4.723748 Z M 30.1797 2.319936 C 30.1797 2.183079 30.291359 2.071377 30.428827 2.071377 L 33.227821 2.071377 C 33.364846 2.071377 33.476615 2.182746 33.476615 2.319936 L 33.476615 3.027383 L 30.180143 3.027383 L 30.180143 2.319936 Z M 28.510362 4.447374 C 28.510362 4.310406 28.622131 4.198704 28.759489 4.198704 L 34.897159 4.198704 C 35.034184 4.198704 35.145954 4.310406 35.145954 4.447374 L 35.145954 4.723748 L 28.510694 4.723748 L 28.510694 4.447374 Z M 16.199353 4.113597 C 16.199353 3.976629 16.311012 3.865038 16.448037 3.865038 L 17.577803 3.865038 C 17.71505 3.865038 17.826487 3.976629 17.826487 4.113597 L 17.826487 4.723748 L 16.199353 4.723748 Z M 5.849567 3.279378 C 5.849567 3.142409 5.961226 3.030707 6.098251 3.030707 L 12.236254 3.030707 C 12.373279 3.030707 12.485048 3.142409 12.485048 3.279378 L 12.485048 4.723748 L 5.849567 4.723748 Z M 7.526549 11.552317 C 6.945105 11.552317 6.471775 11.079467 6.471775 10.498239 C 6.471775 9.917011 6.945105 9.443939 7.526549 9.443939 C 8.108214 9.443939 8.581212 9.917011 8.581212 10.498239 C 8.581212 11.079467 8.108214 11.552317 7.526549 11.552317 Z M 9.674313 9.912468 C 9.416435 8.968651 8.551636 8.272507 7.526549 8.272507 C 6.501462 8.272507 5.636552 8.968651 5.378675 9.912468 L 2.171928 9.912468 L 2.171928 6.977959 C 2.171928 6.380996 2.657997 5.895069 3.255281 5.895069 L 38.744834 5.895069 C 39.342118 5.895069 39.828187 6.380996 39.828187 6.977959 L 39.828187 9.912468 L 38.08441 9.912468 L 38.08441 7.784475 C 38.08441 7.461115 37.82199 7.198815 37.498535 7.198815 L 32.045327 7.198815 C 31.721761 7.198815 31.459452 7.461115 31.459452 7.784475 L 31.459452 9.912468 L 25.726655 9.912468 C 24.262689 9.225522 22.650952 8.856727 21.000002 8.856727 C 19.309949 8.856727 17.707185 9.235827 16.271244 9.912468 Z M 32.631201 9.912468 L 32.631201 8.370136 L 36.91255 8.370136 L 36.91255 9.912468 Z M 3.255281 28.862491 C 2.657997 28.862491 2.171928 28.376565 2.171928 27.779601 L 2.171928 27.558746 L 12.866548 27.558746 C 13.309859 28.034034 13.794155 28.470537 14.313898 28.862491 Z M 11.04523 19.978515 C 11.04523 14.491701 15.511125 10.028048 21.000002 10.028048 C 23.84696 10.028048 26.56365 11.251231 28.453979 13.383767 C 28.668545 13.62601 29.038746 13.648616 29.281005 13.433855 C 29.523264 13.219427 29.54564 12.849414 29.331074 12.60706 C 28.828389 12.040127 28.272977 11.531262 27.676136 11.083789 L 39.828187 11.083789 L 39.828187 26.387425 L 30.088535 26.387425 C 30.983353 25.123351 31.620515 23.665239 31.924696 22.089663 L 33.457563 22.089663 C 34.321919 22.089663 35.025323 21.386759 35.025323 20.52273 L 35.025323 19.063732 C 35.025323 18.199481 34.322251 17.496688 33.457563 17.496688 L 31.844829 17.496688 C 31.631814 16.56484 31.301048 15.661028 30.856851 14.815948 C 30.706533 14.5296 30.352173 14.419117 30.065937 14.569937 C 29.779369 14.720203 29.668929 15.074037 29.819247 15.360496 C 30.562086 16.774724 30.954885 18.371577 30.954885 19.978515 C 30.954885 25.465217 26.489211 29.92887 21.000002 29.92887 C 15.511125 29.92887 11.04523 25.464885 11.04523 19.978515 Z M 32.048318 18.667788 L 33.457563 18.667788 C 33.675784 18.667788 33.853463 18.845314 33.853463 19.063399 L 33.853463 20.52273 C 33.853463 20.740815 33.675784 20.918453 33.457563 20.918453 L 32.086534 20.918453 C 32.112676 20.608391 32.126855 20.294782 32.126855 19.978182 C 32.126855 19.539906 32.100159 19.102185 32.048318 18.667788 Z M 38.744834 28.862491 L 27.686106 28.862491 C 28.205849 28.470537 28.690256 28.034034 29.133567 27.558746 L 39.828187 27.558746 L 39.828187 27.779601 C 39.828187 28.376565 39.342118 28.862491 38.744834 28.862491 Z M 38.744834 28.862491 " stroke="#ffffff" stroke-width="0.25" stroke-opacity="1" stroke-miterlimit="4"/></g><g clip-path="url(#8def121568)"><g clip-path="url(#a92e06f876)"><path fill="#ffffff" d="M 467.03125 609.496094 L 467.03125 1156.246094 L 1014.226562 1156.246094 L 1014.226562 609.496094 Z M 467.03125 609.496094 " fill-opacity="1" fill-rule="nonzero"/></g></g><path stroke-linecap="butt" transform="matrix(35.263789, 0, 0, 35.249997, 0.0853699, 178.636328)" fill="none" stroke-linejoin="miter" d="M 13.241512 19.978515 C 13.241512 15.702251 16.721866 12.222973 21.000113 12.222973 C 25.278249 12.222973 28.758714 15.702251 28.758714 19.978515 C 28.758714 24.254446 25.278249 27.733613 21.000113 27.733613 C 16.721866 27.733613 13.241512 24.254446 13.241512 19.978515 Z M 14.163248 19.978515 C 14.163248 23.746689 17.2302 26.81207 21.000113 26.81207 C 24.770026 26.81207 27.836756 23.746689 27.836756 19.978515 C 27.836756 16.210341 24.770026 13.144516 21.000113 13.144516 C 17.2302 13.144516 14.163248 16.210341 14.163248 19.978515 Z M 14.163248 19.978515 " stroke="#ffffff" stroke-width="0.25" stroke-opacity="1" stroke-miterlimit="4"/><g clip-path="url(#6787567988)"><g clip-path="url(#bff8ca86e6)"><path fill="#ffffff" d="M 550.867188 693.269531 L 550.867188 1072.472656 L 930.386719 1072.472656 L 930.386719 693.269531 Z M 550.867188 693.269531 " fill-opacity="1" fill-rule="nonzero"/></g></g><path stroke-linecap="butt" transform="matrix(35.263789, 0, 0, 35.249997, 0.0853699, 178.636328)" fill="none" stroke-linejoin="miter" d="M 15.618907 19.978515 C 15.618907 17.012646 18.032967 14.599525 20.999891 14.599525 C 23.967148 14.599525 26.381208 17.012646 26.381208 19.978515 C 26.381208 22.944273 23.967148 25.357061 20.999891 25.357061 C 18.032745 25.357061 15.618907 22.944273 15.618907 19.978515 Z M 16.540753 19.978515 C 16.540753 22.436294 18.540968 24.435629 20.999891 24.435629 C 23.458814 24.435629 25.459251 22.436294 25.459251 19.978515 C 25.459251 17.520403 23.458814 15.520957 20.999891 15.520957 C 18.540968 15.520957 16.540753 17.520403 16.540753 19.978515 Z M 16.540753 19.978515 " stroke="#ffffff" stroke-width="0.25" stroke-opacity="1" stroke-miterlimit="4"/></svg>