<svg xmlns="http://www.w3.org/2000/svg" xmlns:xlink="http://www.w3.org/1999/xlink" width="1080" zoomAndPan="magnify" viewBox="0 0 810 1499.999933" height="2000" preserveAspectRatio="xMidYMid meet" version="1.0"><defs><filter x="0%" y="0%" width="100%" height="100%" id="5e477d712f"><feColorMatrix values="0 0 0 0 1 0 0 0 0 1 0 0 0 0 1 0 0 0 1 0" color-interpolation-filters="sRGB"/></filter><mask id="6e5b9f58c1"><g filter="url(#5e477d712f)"><rect x="-81" width="972" fill="#000000" y="-149.999993" height="1799.99992" fill-opacity="0.149"/></g></mask><clipPath id="e67387ab12"><path d="M 0.320312 0.238281 L 667 0.238281 L 667 1271.761719 L 0.320312 1271.761719 Z M 0.320312 0.238281 " clip-rule="nonzero"/></clipPath><clipPath id="c72638a59e"><path d="M 67.414062 0.449219 C 30.460938 0.449219 0.503906 30.402344 0.503906 67.351562 L 0.503906 1204.648438 C 0.503906 1241.597656 30.460938 1271.550781 67.414062 1271.550781 L 599.371094 1271.550781 C 636.328125 1271.550781 666.285156 1241.597656 666.285156 1204.648438 L 666.285156 67.351562 C 666.285156 30.402344 636.328125 0.449219 599.371094 0.449219 L 491.078125 0.449219 L 491.078125 33.898438 L 175.707031 33.898438 L 175.707031 0.449219 Z M 67.414062 0.449219 " clip-rule="evenodd"/></clipPath><clipPath id="a307cd9209"><rect x="0" width="670" y="0" height="1272"/></clipPath><clipPath id="0beef559ee"><path d="M 50 81 L 759 81 L 759 1419 L 50 1419 Z M 50 81 " clip-rule="nonzero"/></clipPath><clipPath id="5b7105a990"><path d="M 321.710938 1274.3125 C 309.214844 1274.3125 299.085938 1284.441406 299.085938 1296.933594 C 299.085938 1309.425781 309.214844 1319.554688 321.710938 1319.554688 Z M 487.480469 1319.554688 C 499.976562 1319.554688 510.105469 1309.425781 510.105469 1296.933594 C 510.105469 1284.441406 499.976562 1274.3125 487.480469 1274.3125 Z M 50.429688 1064.902344 C 50.429688 1077.394531 60.5625 1087.523438 73.058594 1087.523438 C 85.554688 1087.523438 95.683594 1077.394531 95.683594 1064.902344 Z M 95.683594 1164.34375 C 95.683594 1151.847656 85.554688 1141.71875 73.058594 1141.71875 C 60.5625 1141.71875 50.429688 1151.847656 50.429688 1164.34375 Z M 713.507812 335.65625 C 713.507812 348.148438 723.636719 358.277344 736.132812 358.277344 C 748.628906 358.277344 758.761719 348.148438 758.761719 335.65625 Z M 758.761719 435.097656 C 758.761719 422.605469 748.628906 412.476562 736.132812 412.476562 C 723.636719 412.476562 713.507812 422.605469 713.507812 435.097656 Z M 655.320312 1373.753906 L 153.871094 1373.753906 L 153.871094 1419 L 655.320312 1419 Z M 153.871094 126.246094 L 255.402344 126.246094 L 255.402344 81 L 153.871094 81 Z M 232.777344 137.597656 L 278.03125 137.597656 L 278.03125 103.625 L 232.777344 103.625 Z M 287.730469 192.542969 L 521.464844 192.542969 L 521.464844 147.292969 L 287.730469 147.292969 Z M 255.402344 126.246094 L 553.785156 126.246094 L 553.785156 81 L 255.402344 81 Z M 553.785156 126.246094 L 655.320312 126.246094 L 655.320312 81 L 553.785156 81 Z M 576.417969 137.597656 L 576.417969 103.625 L 531.160156 103.625 L 531.160156 137.597656 Z M 321.710938 1319.554688 L 487.480469 1319.554688 L 487.480469 1274.3125 L 321.710938 1274.3125 Z M 95.683594 1064.902344 L 95.683594 184.421875 L 50.429688 184.421875 L 50.429688 1064.902344 Z M 95.683594 1315.578125 L 95.683594 1164.34375 L 50.429688 1164.34375 L 50.429688 1315.578125 Z M 713.507812 184.421875 L 713.507812 335.65625 L 758.761719 335.65625 L 758.761719 184.421875 Z M 713.507812 435.097656 L 713.507812 1315.578125 L 758.761719 1315.578125 L 758.761719 435.097656 Z M 521.464844 192.542969 C 551.8125 192.542969 576.417969 167.941406 576.417969 137.597656 L 531.160156 137.597656 C 531.160156 142.953125 526.820312 147.292969 521.464844 147.292969 Z M 153.871094 1373.753906 C 121.734375 1373.753906 95.683594 1347.707031 95.683594 1315.578125 L 50.429688 1315.578125 C 50.429688 1372.695312 96.742188 1419 153.871094 1419 Z M 655.320312 1419 C 712.449219 1419 758.761719 1372.695312 758.761719 1315.578125 L 713.507812 1315.578125 C 713.507812 1347.707031 687.457031 1373.753906 655.320312 1373.753906 Z M 655.320312 126.246094 C 687.457031 126.246094 713.507812 152.292969 713.507812 184.421875 L 758.761719 184.421875 C 758.761719 127.304688 712.449219 81 655.320312 81 Z M 232.777344 137.597656 C 232.777344 167.941406 257.378906 192.542969 287.730469 192.542969 L 287.730469 147.292969 C 282.371094 147.292969 278.03125 142.953125 278.03125 137.597656 Z M 153.871094 81 C 96.742188 81 50.429688 127.304688 50.429688 184.421875 L 95.683594 184.421875 C 95.683594 152.292969 121.734375 126.246094 153.871094 126.246094 Z M 153.871094 81 " clip-rule="nonzero"/></clipPath></defs><g mask="url(#6e5b9f58c1)"><g transform="matrix(1, 0, 0, 1, 70, 114)"><g clip-path="url(#a307cd9209)"><g clip-path="url(#e67387ab12)"><g clip-path="url(#c72638a59e)"><path fill="#ffffff" d="M 0.503906 0.449219 L 0.503906 1271.550781 L 666.285156 1271.550781 L 666.285156 0.449219 Z M 0.503906 0.449219 " fill-opacity="1" fill-rule="nonzero"/></g></g></g></g></g><g clip-path="url(#0beef559ee)"><g clip-path="url(#5b7105a990)"><path fill="#ffffff" d="M 50.429688 81 L 50.429688 1419 L 758.761719 1419 L 758.761719 81 Z M 50.429688 81 " fill-opacity="1" fill-rule="nonzero"/></g></g></svg>