<svg xmlns="http://www.w3.org/2000/svg" xmlns:xlink="http://www.w3.org/1999/xlink" width="4000" zoomAndPan="magnify" viewBox="0 0 3000 2999.999989" height="4000" preserveAspectRatio="xMidYMid meet" version="1.0"><defs><filter x="0%" y="0%" width="100%" height="100%" id="eb3eae9733"><feColorMatrix values="0 0 0 0 1 0 0 0 0 1 0 0 0 0 1 0 0 0 1 0" color-interpolation-filters="sRGB"/></filter><clipPath id="38074ef2d8"><path d="M 106 106 L 2928.96875 106 L 2928.96875 2861 L 106 2861 Z M 106 106 " clip-rule="nonzero"/></clipPath><mask id="62a59ae9a1"><g filter="url(#eb3eae9733)"><rect x="-300" width="3600" fill="#000000" y="-299.999999" height="3599.999987" fill-opacity="0.149"/></g></mask><clipPath id="fcec266c84"><path d="M 0.320312 0.320312 L 2755 0.320312 L 2755 2754.320312 L 0.320312 2754.320312 Z M 0.320312 0.320312 " clip-rule="nonzero"/></clipPath><clipPath id="249860f961"><path d="M 2729.1875 1295.699219 C 2714.085938 1289.421875 2696.703125 1292.890625 2685.136719 1304.484375 L 2564.089844 1425.921875 L 2564.089844 600.257812 C 2564.089844 577.863281 2546 559.710938 2523.675781 559.710938 L 2213.140625 559.710938 L 2325.867188 446.625 L 2325.914062 446.570312 L 2434.527344 337.605469 C 2457.800781 314.261719 2470.621094 283.203125 2470.621094 250.183594 C 2470.621094 217.164062 2457.800781 186.121094 2434.527344 162.765625 L 2308.929688 36.761719 C 2285.664062 13.414062 2254.707031 0.558594 2221.785156 0.558594 C 2188.875 0.558594 2157.925781 13.414062 2134.648438 36.761719 L 2025.980469 145.777344 L 1894.667969 277.511719 L 1613.378906 559.707031 L 358.84375 559.707031 L 358.84375 158.585938 C 358.84375 136.191406 340.746094 118.042969 318.429688 118.042969 C 143.15625 118.050781 0.558594 261.101562 0.558594 436.945312 L 0.558594 2159.074219 C 0.558594 2162.070312 0.902344 2164.980469 1.515625 2167.789062 C 7.097656 2242.40625 39.273438 2311.726562 93.050781 2364.351562 C 150.53125 2420.59375 226.410156 2451.566406 306.714844 2451.566406 L 1541.722656 2451.566406 L 1309.128906 2684.917969 C 1297.570312 2696.507812 1294.117188 2713.941406 1300.367188 2729.097656 C 1306.625 2744.25 1321.363281 2754.128906 1337.710938 2754.128906 L 2713.71875 2754.128906 C 2736.039062 2754.128906 2754.136719 2735.980469 2754.136719 2713.582031 L 2754.136719 1333.160156 C 2754.136719 1316.765625 2744.285156 1301.976562 2729.1875 1295.699219 Z M 2191.816406 94.109375 C 2208.335938 77.523438 2235.257812 77.523438 2251.78125 94.109375 L 2377.382812 220.117188 C 2393.914062 236.695312 2393.914062 263.691406 2377.382812 280.273438 L 2297.296875 360.621094 L 2111.71875 174.457031 Z M 2054.5625 231.796875 L 2240.132812 417.960938 L 2165.980469 492.355469 L 1980.414062 306.195312 Z M 1198.132812 1429.660156 L 1082.367188 1470.660156 L 1005.230469 1393.277344 L 1046.101562 1277.140625 Z M 2398.179688 2008.648438 L 2008.648438 2398.179688 C 2004.308594 2402.519531 2007.378906 2409.933594 2013.515625 2409.933594 L 2409.933594 2409.933594 L 2409.933594 2013.515625 C 2409.933594 2007.378906 2402.519531 2004.308594 2398.179688 2008.648438 Z M 1033.144531 1205.246094 L 1274.082031 1446.183594 L 2168.996094 551.269531 L 1928.058594 310.332031 Z M 1033.144531 1205.246094 " clip-rule="evenodd"/></clipPath><clipPath id="356d0b6ead"><rect x="0" width="2823" y="0" height="2755"/></clipPath><clipPath id="138ce9bcee"><path d="M 2045 2048 L 2569 2048 L 2569 2573 L 2045 2573 Z M 2045 2048 " clip-rule="nonzero"/></clipPath><clipPath id="95b198d27c"><path d="M 2543.453125 2051.605469 C 2528.351562 2045.324219 2510.96875 2048.796875 2499.410156 2060.386719 L 2057.730469 2503.492188 C 2046.171875 2515.09375 2042.710938 2532.527344 2048.972656 2547.679688 C 2055.226562 2562.839844 2069.96875 2572.710938 2086.3125 2572.710938 L 2527.992188 2572.710938 C 2550.316406 2572.710938 2568.40625 2554.558594 2568.40625 2532.164062 L 2568.40625 2089.058594 C 2568.402344 2072.667969 2558.558594 2057.882812 2543.453125 2051.605469 Z M 2183.871094 2491.625 L 2487.5625 2186.949219 L 2487.5625 2491.625 Z M 2183.871094 2491.625 " clip-rule="nonzero"/></clipPath><clipPath id="94f0843de8"><path d="M 106 106 L 2861 106 L 2861 2861 L 106 2861 Z M 106 106 " clip-rule="nonzero"/></clipPath><clipPath id="8ae4d0c591"><path d="M 2835.1875 1401.699219 C 2820.085938 1395.421875 2802.703125 1398.890625 2791.136719 1410.484375 L 2670.089844 1531.921875 L 2670.089844 706.257812 C 2670.089844 683.863281 2652 665.710938 2629.675781 665.710938 L 2319.140625 665.710938 L 2431.867188 552.625 C 2431.886719 552.609375 2431.898438 552.585938 2431.914062 552.570312 L 2540.527344 443.605469 C 2563.800781 420.261719 2576.621094 389.203125 2576.621094 356.183594 C 2576.621094 323.164062 2563.800781 292.121094 2540.527344 268.765625 L 2414.929688 142.761719 C 2391.664062 119.414062 2360.707031 106.558594 2327.785156 106.558594 C 2294.875 106.558594 2263.925781 119.414062 2240.648438 142.761719 L 2131.980469 251.777344 L 2000.667969 383.511719 L 1719.378906 665.707031 L 464.84375 665.707031 L 464.84375 264.585938 C 464.84375 242.191406 446.746094 224.042969 424.429688 224.042969 C 249.15625 224.050781 106.558594 367.101562 106.558594 542.945312 L 106.558594 2265.074219 C 106.558594 2268.070312 106.902344 2270.980469 107.515625 2273.789062 C 113.097656 2348.40625 145.273438 2417.726562 199.050781 2470.351562 C 256.53125 2526.59375 332.410156 2557.566406 412.714844 2557.566406 L 1647.722656 2557.566406 L 1415.128906 2790.917969 C 1403.570312 2802.507812 1400.117188 2819.941406 1406.367188 2835.097656 C 1412.625 2850.25 1427.363281 2860.128906 1443.710938 2860.128906 L 2819.71875 2860.128906 C 2842.039062 2860.128906 2860.136719 2841.980469 2860.136719 2819.582031 L 2860.136719 1439.160156 C 2860.136719 1422.765625 2850.285156 1407.976562 2835.1875 1401.699219 Z M 2297.816406 200.109375 C 2314.335938 183.523438 2341.257812 183.523438 2357.78125 200.109375 L 2483.382812 326.117188 C 2499.914062 342.695312 2499.914062 369.691406 2483.382812 386.273438 L 2403.296875 466.621094 L 2217.71875 280.457031 Z M 2160.5625 337.796875 L 2346.132812 523.960938 L 2271.980469 598.355469 L 2086.414062 412.195312 Z M 2779.3125 1894.753906 L 2704.746094 1894.753906 C 2682.417969 1894.753906 2664.328125 1912.90625 2664.328125 1935.300781 C 2664.328125 1957.699219 2682.417969 1975.847656 2704.746094 1975.847656 L 2779.3125 1975.847656 L 2779.3125 2098.027344 L 2704.746094 2098.027344 C 2682.417969 2098.027344 2664.328125 2116.1875 2664.328125 2138.582031 C 2664.328125 2160.976562 2682.417969 2179.128906 2704.746094 2179.128906 L 2779.3125 2179.128906 L 2779.3125 2301.304688 L 2704.746094 2301.304688 C 2682.417969 2301.304688 2664.328125 2319.449219 2664.328125 2341.851562 C 2664.328125 2364.246094 2682.417969 2382.398438 2704.746094 2382.398438 L 2779.3125 2382.398438 L 2779.3125 2504.582031 L 2704.746094 2504.582031 C 2682.417969 2504.582031 2664.328125 2522.734375 2664.328125 2545.125 C 2664.328125 2567.527344 2682.417969 2585.671875 2704.746094 2585.671875 L 2779.3125 2585.671875 L 2779.3125 2779.050781 L 1541.277344 2779.050781 L 1949.515625 2369.511719 C 1965.300781 2353.664062 1965.300781 2328 1949.515625 2312.167969 C 1947.703125 2310.34375 1945.757812 2308.765625 1943.71875 2307.371094 C 1927.984375 2296.5625 1906.332031 2298.144531 1892.351562 2312.167969 L 1728.5625 2476.488281 L 412.71875 2476.488281 C 290.144531 2476.488281 191.464844 2380.484375 187.582031 2257.738281 C 187.8125 2250.027344 188.410156 2242.386719 189.367188 2234.832031 C 189.375 2234.792969 189.378906 2234.75 189.386719 2234.703125 C 189.835938 2231.117188 190.378906 2227.542969 190.996094 2224 C 191.066406 2223.59375 191.144531 2223.179688 191.214844 2222.78125 C 191.777344 2219.613281 192.414062 2216.460938 193.105469 2213.320312 C 193.300781 2212.445312 193.503906 2211.574219 193.707031 2210.707031 C 194.320312 2208.046875 194.984375 2205.410156 195.695312 2202.78125 C 196.082031 2201.355469 196.484375 2199.953125 196.898438 2198.535156 C 197.488281 2196.46875 198.101562 2194.417969 198.753906 2192.378906 C 199.402344 2190.347656 200.097656 2188.332031 200.804688 2186.324219 C 201.292969 2184.917969 201.777344 2183.507812 202.304688 2182.109375 C 203.289062 2179.453125 204.332031 2176.828125 205.40625 2174.21875 C 205.710938 2173.46875 206.015625 2172.714844 206.332031 2171.960938 C 207.714844 2168.71875 209.148438 2165.527344 210.667969 2162.359375 C 210.730469 2162.230469 210.789062 2162.089844 210.855469 2161.960938 C 242.464844 2096.328125 303.265625 2047.398438 376.230469 2032.210938 C 376.433594 2032.171875 376.640625 2032.121094 376.84375 2032.074219 C 380.1875 2031.394531 383.566406 2030.808594 386.964844 2030.265625 C 387.53125 2030.175781 388.09375 2030.050781 388.667969 2029.96875 C 391.738281 2029.5 394.84375 2029.136719 397.945312 2028.785156 C 398.816406 2028.6875 399.683594 2028.550781 400.5625 2028.46875 C 403.554688 2028.164062 406.578125 2027.964844 409.601562 2027.773438 C 410.558594 2027.710938 411.515625 2027.613281 412.472656 2027.566406 C 416.429688 2027.367188 420.421875 2027.261719 424.429688 2027.261719 C 446.746094 2027.261719 464.84375 2009.117188 464.84375 1986.714844 L 464.84375 1692.722656 C 464.84375 1670.332031 446.746094 1652.183594 424.429688 1652.183594 C 402.109375 1652.183594 384.011719 1670.332031 384.011719 1692.722656 L 384.011719 1948.722656 C 315.765625 1957.382812 252.414062 1987.921875 202.464844 2036.859375 C 197.210938 2042 192.230469 2047.355469 187.378906 2052.796875 L 187.378906 542.945312 C 187.378906 425.644531 272.492188 327.898438 384.007812 308.59375 L 384.007812 1530.550781 C 384.007812 1552.9375 402.105469 1571.097656 424.421875 1571.097656 C 446.742188 1571.097656 464.839844 1552.9375 464.839844 1530.550781 L 464.839844 746.804688 L 1638.554688 746.804688 L 1415.121094 970.953125 C 1399.339844 986.792969 1399.339844 1012.460938 1415.121094 1028.292969 C 1430.90625 1044.121094 1456.496094 1044.121094 1472.28125 1028.292969 L 1764.703125 734.929688 C 1764.710938 734.921875 1764.714844 734.910156 1764.722656 734.902344 L 2029.246094 469.53125 L 2214.808594 655.699219 L 2193.035156 677.539062 C 2193.019531 677.554688 2193 677.570312 2192.984375 677.585938 L 1378.054688 1495.148438 L 1192.488281 1308.988281 L 1353.121094 1147.839844 C 1368.902344 1131.992188 1368.902344 1106.332031 1353.121094 1090.496094 C 1337.335938 1074.671875 1311.746094 1074.671875 1295.96875 1090.496094 L 1106.75 1280.316406 C 1105.738281 1281.332031 1104.796875 1282.402344 1103.90625 1283.503906 C 1103.613281 1283.875 1103.351562 1284.265625 1103.066406 1284.644531 C 1102.496094 1285.410156 1101.9375 1286.171875 1101.414062 1286.972656 C 1101.121094 1287.441406 1100.851562 1287.914062 1100.570312 1288.390625 C 1100.128906 1289.148438 1099.695312 1289.917969 1099.300781 1290.695312 C 1099.046875 1291.199219 1098.8125 1291.722656 1098.578125 1292.246094 C 1098.214844 1293.035156 1097.882812 1293.847656 1097.574219 1294.652344 C 1097.472656 1294.945312 1097.328125 1295.210938 1097.222656 1295.492188 L 1018.484375 1519.277344 L 964.804688 1671.851562 C 964.09375 1673.875 963.578125 1675.941406 963.199219 1678.019531 L 828.792969 1678.019531 C 806.472656 1678.019531 788.375 1696.167969 788.375 1718.558594 C 788.375 1740.960938 806.472656 1759.105469 828.792969 1759.105469 L 1948.042969 1759.105469 C 1970.367188 1759.105469 1988.457031 1740.960938 1988.457031 1718.558594 C 1988.457031 1696.167969 1970.367188 1678.019531 1948.042969 1678.019531 L 1145.023438 1678.019531 L 1391.503906 1590.726562 C 1391.710938 1590.65625 1391.902344 1590.554688 1392.101562 1590.476562 C 1393.066406 1590.121094 1394.003906 1589.714844 1394.933594 1589.292969 C 1395.304688 1589.121094 1395.675781 1588.957031 1396.039062 1588.777344 C 1397.003906 1588.296875 1397.953125 1587.757812 1398.890625 1587.1875 C 1399.195312 1587 1399.503906 1586.835938 1399.800781 1586.648438 C 1400.777344 1586.023438 1401.71875 1585.335938 1402.65625 1584.613281 C 1402.882812 1584.441406 1403.125 1584.28125 1403.351562 1584.097656 C 1404.472656 1583.1875 1405.574219 1582.214844 1406.621094 1581.164062 L 2238.308594 746.8125 L 2589.257812 746.8125 L 2589.257812 1613.015625 L 2011.132812 2193 C 1995.347656 2208.847656 1995.347656 2234.511719 2011.132812 2250.34375 C 2012.117188 2251.335938 2013.144531 2252.265625 2014.203125 2253.125 C 2021.617188 2259.1875 2030.671875 2262.226562 2039.714844 2262.226562 C 2048.761719 2262.226562 2057.8125 2259.1875 2065.21875 2253.125 C 2066.28125 2252.265625 2067.304688 2251.335938 2068.289062 2250.34375 L 2068.3125 2250.328125 L 2779.3125 1537.03125 Z M 1304.132812 1535.660156 L 1188.367188 1576.660156 L 1111.230469 1499.277344 L 1152.101562 1383.140625 Z M 1304.132812 1535.660156 " clip-rule="nonzero"/></clipPath><clipPath id="594e24e906"><path d="M 37.71875 37.71875 L 2928.96875 37.71875 L 2928.96875 2928.96875 L 37.71875 2928.96875 Z M 37.71875 37.71875 " clip-rule="nonzero"/></clipPath></defs><g clip-path="url(#38074ef2d8)"><g mask="url(#62a59ae9a1)"><g transform="matrix(1, 0, 0, 1, 106, 106)"><g clip-path="url(#356d0b6ead)"><g clip-path="url(#fcec266c84)"><g clip-path="url(#249860f961)"><path fill="#ffffff" d="M 0.558594 0.558594 L 0.558594 2754.128906 L 2754.136719 2754.128906 L 2754.136719 0.558594 Z M 0.558594 0.558594 " fill-opacity="1" fill-rule="nonzero"/></g></g></g></g></g></g><g clip-path="url(#138ce9bcee)"><g clip-path="url(#95b198d27c)"><path fill="#ffffff" d="M 2042.710938 2045.324219 L 2042.710938 2572.710938 L 2568.40625 2572.710938 L 2568.40625 2045.324219 Z M 2042.710938 2045.324219 " fill-opacity="1" fill-rule="nonzero"/></g></g><path stroke-linecap="butt" transform="matrix(68.839281, 0, 0, 68.839281, 37.717683, 37.717778)" fill="none" stroke-linejoin="miter" d="M 36.399791 29.254921 C 36.180417 29.163675 35.927904 29.214121 35.759997 29.382482 L 29.343897 35.819294 C 29.17599 35.987825 29.125715 36.241075 29.216676 36.461187 C 29.307524 36.681413 29.521678 36.824806 29.759097 36.824806 L 36.175196 36.824806 C 36.499491 36.824806 36.762275 36.561114 36.762275 36.235798 L 36.762275 29.798987 C 36.762218 29.560887 36.619222 29.346109 36.399791 29.254921 Z M 31.17629 35.646904 L 35.587891 31.221004 L 35.587891 35.646904 Z M 31.17629 35.646904 " stroke="#ffffff" stroke-width="0.25" stroke-opacity="1" stroke-miterlimit="4"/><g clip-path="url(#94f0843de8)"><g clip-path="url(#8ae4d0c591)"><path fill="#ffffff" d="M 106.558594 106.558594 L 106.558594 2860.128906 L 2860.136719 2860.128906 L 2860.136719 106.558594 Z M 106.558594 106.558594 " fill-opacity="1" fill-rule="nonzero"/></g></g><g clip-path="url(#594e24e906)"><path stroke-linecap="butt" transform="matrix(68.839281, 0, 0, 68.839281, 37.717683, 37.717778)" fill="none" stroke-linejoin="miter" d="M 40.637697 19.813999 C 40.418322 19.722811 40.165809 19.7732 39.997789 19.941617 L 38.239391 21.70569 L 38.239391 9.711607 C 38.239391 9.386291 37.976607 9.122599 37.652312 9.122599 L 33.141295 9.122599 L 34.778828 7.479846 C 34.779112 7.479619 34.779282 7.479279 34.779509 7.479052 L 36.357289 5.896164 C 36.695373 5.557059 36.881609 5.105883 36.881609 4.626222 C 36.881609 4.146561 36.695373 3.695613 36.357289 3.356337 L 34.532784 1.52593 C 34.194814 1.186768 33.745114 1.000022 33.266871 1.000022 C 32.788799 1.000022 32.339212 1.186768 32.001072 1.52593 L 30.422497 3.109556 L 28.514974 5.023207 L 24.428803 9.122542 L 6.204685 9.122542 L 6.204685 3.295621 C 6.204685 2.970305 5.941788 2.70667 5.617607 2.70667 C 3.071481 2.706783 1.000024 4.784823 1.000024 7.339233 L 1.000024 32.355894 C 1.000024 32.399417 1.005017 32.441691 1.013926 32.48249 C 1.095014 33.566424 1.562418 34.573411 2.34362 35.337873 C 3.178615 36.15488 4.280877 36.604808 5.44743 36.604808 L 23.387882 36.604808 L 20.009088 39.99461 C 19.841181 40.162971 19.791019 40.416222 19.88181 40.63639 C 19.972715 40.856502 20.186812 41.000009 20.424287 41.000009 L 40.412989 41.000009 C 40.737227 41.000009 41.000124 40.736374 41.000124 40.411001 L 41.000124 20.358179 C 41.000124 20.120022 40.857014 19.905187 40.637697 19.813999 Z M 32.831527 2.358996 C 33.0715 2.118059 33.462583 2.118059 33.702612 2.358996 L 35.527174 4.18946 C 35.767317 4.430284 35.767317 4.822445 35.527174 5.063325 L 34.363799 6.230503 L 31.667981 3.526174 Z M 30.837696 4.359126 L 33.5334 7.063455 L 32.456219 8.144154 L 29.760572 5.439882 Z M 39.826023 26.976402 L 38.742828 26.976402 C 38.418476 26.976402 38.155693 27.240094 38.155693 27.56541 C 38.155693 27.890783 38.418476 28.154418 38.742828 28.154418 L 39.826023 28.154418 L 39.826023 29.929272 L 38.742828 29.929272 C 38.418476 29.929272 38.155693 30.193077 38.155693 30.518393 C 38.155693 30.84371 38.418476 31.107401 38.742828 31.107401 L 39.826023 31.107401 L 39.826023 32.882199 L 38.742828 32.882199 C 38.418476 32.882199 38.155693 33.145777 38.155693 33.471206 C 38.155693 33.796523 38.418476 34.060214 38.742828 34.060214 L 39.826023 34.060214 L 39.826023 35.835125 L 38.742828 35.835125 C 38.418476 35.835125 38.155693 36.098817 38.155693 36.424076 C 38.155693 36.749506 38.418476 37.013084 38.742828 37.013084 L 39.826023 37.013084 L 39.826023 39.82222 L 21.841595 39.82222 L 27.771905 33.873014 C 28.001209 33.642802 28.001209 33.269991 27.771905 33.040005 C 27.745575 33.013505 27.717316 32.990581 27.687696 32.970323 C 27.459129 32.813311 27.144594 32.836292 26.941506 33.040005 L 24.562209 35.427019 L 5.447487 35.427019 C 3.666901 35.427019 2.233422 34.03241 2.177018 32.249327 C 2.180366 32.137314 2.189048 32.026321 2.20295 31.916578 C 2.203064 31.91601 2.20312 31.915386 2.203234 31.914705 C 2.209759 31.862614 2.217647 31.810692 2.226613 31.759225 C 2.227634 31.753324 2.228769 31.747309 2.22979 31.741521 C 2.237962 31.695501 2.247211 31.649708 2.257255 31.604086 C 2.260092 31.591375 2.263043 31.578721 2.265993 31.566124 C 2.274902 31.527481 2.284549 31.489178 2.294876 31.450989 C 2.300494 31.430277 2.306339 31.409906 2.312354 31.389308 C 2.320922 31.35929 2.329831 31.329499 2.339307 31.299879 C 2.348727 31.270371 2.358827 31.241091 2.369098 31.211925 C 2.376191 31.191497 2.383227 31.171012 2.390888 31.150697 C 2.405188 31.112111 2.420338 31.073979 2.435943 31.036073 C 2.440369 31.025178 2.444795 31.014227 2.449391 31.003275 C 2.469479 30.956177 2.490304 30.909817 2.512378 30.863797 C 2.513286 30.861925 2.514137 30.859882 2.515102 30.858009 C 2.974278 29.904588 3.857506 29.193807 4.917436 28.973184 C 4.920387 28.972617 4.923395 28.971879 4.926345 28.971198 C 4.974919 28.961325 5.024003 28.952813 5.07337 28.944925 C 5.081598 28.94362 5.089769 28.941804 5.098111 28.940613 C 5.142712 28.933803 5.187824 28.928526 5.232879 28.923419 C 5.245533 28.922001 5.25813 28.920015 5.270898 28.918823 C 5.314364 28.914397 5.358284 28.911503 5.402205 28.908722 C 5.416107 28.907814 5.430009 28.906396 5.443912 28.905715 C 5.501394 28.902821 5.559387 28.901289 5.617607 28.901289 C 5.941788 28.901289 6.204685 28.637711 6.204685 28.312281 L 6.204685 24.041577 C 6.204685 23.716318 5.941788 23.452683 5.617607 23.452683 C 5.293369 23.452683 5.030471 23.716318 5.030471 24.041577 L 5.030471 27.760384 C 4.039088 27.886187 3.118806 28.329815 2.393214 29.04071 C 2.316893 29.115386 2.244544 29.193183 2.174067 29.272228 L 2.174067 7.339233 C 2.174067 5.635253 3.410473 4.215335 5.030415 3.934904 L 5.030415 21.685773 C 5.030415 22.010975 5.293312 22.274781 5.617493 22.274781 C 5.941731 22.274781 6.204628 22.010975 6.204628 21.685773 L 6.204628 10.300615 L 23.254703 10.300615 L 20.008974 13.556727 C 19.779727 13.786826 19.779727 14.159694 20.008974 14.38968 C 20.238279 14.619608 20.610012 14.619608 20.839317 14.38968 L 25.087209 10.128111 C 25.087323 10.127998 25.087379 10.127828 25.087493 10.127714 L 28.930116 6.272777 L 31.625707 8.977163 L 31.309413 9.294421 C 31.309186 9.294648 31.308902 9.294875 31.308675 9.295102 L 19.470526 21.171497 L 16.774879 18.467225 L 19.108326 16.126288 C 19.337574 15.896076 19.337574 15.523321 19.108326 15.293279 C 18.879021 15.063407 18.507288 15.063407 18.278097 15.293279 L 15.529394 18.050721 C 15.514697 18.065474 15.501022 18.081022 15.488084 18.097024 C 15.483828 18.102415 15.480026 18.108089 15.475884 18.113594 C 15.467599 18.124715 15.459485 18.135781 15.451881 18.147413 C 15.447625 18.154223 15.44371 18.161089 15.439624 18.168012 C 15.433212 18.17902 15.426913 18.190199 15.421182 18.201491 C 15.417494 18.208811 15.414089 18.216415 15.410685 18.224018 C 15.405407 18.235481 15.400584 18.247284 15.396101 18.258973 C 15.394626 18.263229 15.392526 18.267087 15.390994 18.271173 L 14.247195 21.522008 L 13.467413 23.738391 C 13.457085 23.767785 13.449595 23.797803 13.444091 23.827991 L 11.491626 23.827991 C 11.167388 23.827991 10.904491 24.091626 10.904491 24.416885 C 10.904491 24.742315 11.167388 25.005893 11.491626 25.005893 L 27.750512 25.005893 C 28.074807 25.005893 28.33759 24.742315 28.33759 24.416885 C 28.33759 24.091626 28.074807 23.827991 27.750512 23.827991 L 16.085377 23.827991 L 19.665897 22.559922 C 19.668905 22.5589 19.671685 22.557425 19.674579 22.55629 C 19.688595 22.551126 19.702214 22.545225 19.715719 22.539096 C 19.72111 22.5366 19.7265 22.534216 19.731778 22.531606 C 19.745793 22.524627 19.759582 22.516796 19.773201 22.508511 C 19.777627 22.505787 19.78211 22.503404 19.786423 22.50068 C 19.800609 22.491601 19.814284 22.481614 19.827903 22.471117 C 19.831194 22.46862 19.834712 22.466293 19.838003 22.463626 C 19.854289 22.450405 19.870291 22.436275 19.885498 22.421011 L 31.967082 10.300728 L 37.065177 10.300728 L 37.065177 22.883706 L 28.666992 31.308901 C 28.437688 31.539113 28.437688 31.911925 28.666992 32.14191 C 28.681292 32.156323 28.696216 32.169828 28.711593 32.182312 C 28.819294 32.27038 28.950828 32.314527 29.082192 32.314527 C 29.213612 32.314527 29.345089 32.27038 29.452676 32.182312 C 29.468111 32.169828 29.482978 32.156323 29.497278 32.14191 L 29.497618 32.141683 L 39.826023 21.779912 Z M 18.396693 21.759995 L 16.715013 22.355585 L 15.59448 21.231476 L 16.188198 19.544406 Z M 18.396693 21.759995 " stroke="#ffffff" stroke-width="0.25" stroke-opacity="1" stroke-miterlimit="4"/></g></svg>